<svg preserveAspectRatio="none" width="100%" height="100%" overflow="visible" style="display: block;" viewBox="0 0 18 18" fill="none" xmlns="http://www.w3.org/2000/svg">
<path id="Vector" d="M9 0C4.032 0 0 4.032 0 9C0 13.968 4.032 18 9 18C13.968 18 18 13.968 18 9C18 4.032 13.968 0 9 0ZM1.8 9C1.8 7.245 2.43 5.634 3.483 4.383L6.3 7.2V8.1C6.3 9.09 7.11 9.9 8.1 9.9V14.931C8.1 15.174 8.199 15.399 8.361 15.57L9 16.2C5.022 16.2 1.8 12.978 1.8 9ZM9.9 16.146V14.4L13.275 9.342C13.419 9.117 13.5 8.856 13.5 8.595V7.65C13.5 7.155 13.095 6.75 12.6 6.75H11.25L9.99 5.175C9.648 4.752 9.135 4.5 8.586 4.5H5.4V2.763C6.462 2.151 7.686 1.8 9 1.8C12.969 1.8 16.2 5.031 16.2 9C16.2 12.663 13.446 15.696 9.9 16.146Z" fill="var(--fill-0, #E2D65D)"/>
</svg>
